<svg xmlns="http://www.w3.org/2000/svg" viewBox="0 0 512 512" width="100%" height="100%">
  <defs>
    <linearGradient id="gold-grad" x1="0%" y1="0%" x2="100%" y2="100%">
      <stop offset="0%" stop-color="#C8A252" />
      <stop offset="100%" stop-color="#DFBD73" />
    </linearGradient>
  </defs>
  <!-- Background -->
  <rect width="512" height="512" rx="128" fill="#0A0A0A" />
  <!-- Brain Circuit Icon -->
  <g transform="translate(96, 96) scale(13.333)" stroke="url(#gold-grad)" stroke-width="1.8" stroke-linecap="round" stroke-linejoin="round" fill="none">
    <path d="M12 5a3 3 0 1 0-5.997.125 4 4 0 0 0-2.526 5.77 4 4 0 0 0 .556 6.588A4 4 0 1 0 12 18Z" />
    <path d="M12 5a3 3 0 1 1 5.997.125 4 4 0 0 1 2.526 5.77 4 4 0 0 1-.556 6.588A4 4 0 1 1 12 18Z" />
    <path d="M9 13h4" />
    <path d="M12 10v4" />
    <path d="M12 12h4" />
    <circle cx="12" cy="12" r="1" fill="#DFBD73" />
  </g>
</svg>
